<svg width="1000" height="1000" viewBox="0 0 1000 1000" fill="none" xmlns="http://www.w3.org/2000/svg">
<circle cx="500" cy="500" r="453.5" stroke="black" stroke-width="45"/>
<circle cx="500" cy="500" r="478.5" stroke="black" stroke-width="5"/>
<circle cx="500" cy="500" r="456" stroke="#B2A797" stroke-width="40"/>
<path d="M317.066 220H442.666L498.666 620.8H500.266L556.266 220H681.866V780H598.666V356H597.066L533.066 780H459.466L395.466 356H393.866V780H317.066V220Z" fill="#B2A797"/>
<path d="M317.066 220V215H312.066V220H317.066ZM442.666 220L447.618 219.308L447.016 215H442.666V220ZM498.666 620.8L493.714 621.492L494.316 625.8H498.666V620.8ZM500.266 620.8V625.8H504.616L505.218 621.492L500.266 620.8ZM556.266 220V215H551.916L551.314 219.308L556.266 220ZM681.866 220H686.866V215H681.866V220ZM681.866 780V785H686.866V780H681.866ZM598.666 780H593.666V785H598.666V780ZM598.666 356H603.666V351H598.666V356ZM597.066 356V351H592.764L592.122 355.254L597.066 356ZM533.066 780V785H537.368L538.01 780.746L533.066 780ZM459.466 780L454.522 780.746L455.164 785H459.466V780ZM395.466 356L400.41 355.254L399.768 351H395.466V356ZM393.866 356V351H388.866V356H393.866ZM393.866 780V785H398.866V780H393.866ZM317.066 780H312.066V785H317.066V780ZM317.066 225H442.666V215H317.066V225ZM437.714 220.692L493.714 621.492L503.618 620.108L447.618 219.308L437.714 220.692ZM498.666 625.8H500.266V615.8H498.666V625.8ZM505.218 621.492L561.218 220.692L551.314 219.308L495.314 620.108L505.218 621.492ZM556.266 225H681.866V215H556.266V225ZM676.866 220V780H686.866V220H676.866ZM681.866 775H598.666V785H681.866V775ZM603.666 780V356H593.666V780H603.666ZM598.666 351H597.066V361H598.666V351ZM592.122 355.254L528.122 779.254L538.01 780.746L602.01 356.746L592.122 355.254ZM533.066 775H459.466V785H533.066V775ZM464.41 779.254L400.41 355.254L390.522 356.746L454.522 780.746L464.41 779.254ZM395.466 351H393.866V361H395.466V351ZM388.866 356V780H398.866V356H388.866ZM393.866 775H317.066V785H393.866V775ZM322.066 780V220H312.066V780H322.066Z" fill="black"/>
</svg>
